<svg xmlns="http://www.w3.org/2000/svg" width="144.505" height="90.504" viewBox="0 0 144.505 90.504"><g transform="translate(-847.528 163.689)"><path d="M854.075-29.978a1.121,1.121,0,0,1-.716,1.063,1.342,1.342,0,0,1,.881,1.227c0,1.228-.921,1.621-2.062,1.621h-2.612v-5.507h2.612c1.086,0,1.9.488,1.9,1.6m-3.486.613h1.589c.653,0,.865-.275.865-.59,0-.252-.2-.676-.865-.676H850.59Zm0,2.329h1.589c.425,0,1.03-.142,1.03-.662,0-.5-.605-.755-1.03-.755H850.59Z" transform="translate(-0.729 -47.244)"/><path d="M866.827-27.106h-2.879l-.472,1.039H862.35l2.471-5.508h1.133l2.471,5.508h-1.133Zm-1.44-3.312-1.023,2.345h2.047Z" transform="translate(-5.3 -47.244)"/><path d="M882.078-31.544l-2.447,2.636,2.652,2.778v.062H881L878.7-28.507v2.439h-1.039v-5.508H878.7v2.329l2.093-2.329h1.291Z" transform="translate(-10.774 -47.244)"/><path d="M895.029-26.068h-4.123v-5.508h4.123v1.007h-3.092V-29.3h2.983v.968h-2.983v1.243h3.092Z" transform="translate(-15.511 -47.244)"/><path d="M908.715-26.072h-1.236l-1.6-1.841h-1v1.841h-1.038v-5.516c.873,0,1.746.008,2.62.008a1.825,1.825,0,0,1,1.983,1.825,1.634,1.634,0,0,1-1.393,1.731l1.668,1.881Zm-3.84-4.54v1.763h1.582a.859.859,0,0,0,.944-.881.863.863,0,0,0-.944-.881Z" transform="translate(-20.136 -47.24)"/><path d="M919.488-29.3l1.464-2.274H922.2v.047l-2.2,3.186v2.274h-1.038v-2.274l-2.117-3.186v-.047h1.235Z" transform="translate(-24.79 -47.244)"/><path d="M942.464-27.106h-2.88l-.472,1.039h-1.126l2.471-5.508h1.133l2.471,5.508h-1.133Zm-1.44-3.312L940-28.074h2.047Z" transform="translate(-32.347 -47.244)"/><path d="M957.091-31.588h1.038v5.516h-.645v.007l-2.9-3.722v3.715H953.55v-5.508h.842l2.7,3.414Z" transform="translate(-37.913 -47.24)"/><path d="M972.219-28.869a2.608,2.608,0,0,1-2.753,2.8H967.3v-5.508h2.164a2.6,2.6,0,0,1,2.753,2.706m-3.887,1.8h1.133a1.636,1.636,0,0,0,1.724-1.81,1.638,1.638,0,0,0-1.724-1.715h-1.133Z" transform="translate(-42.83 -47.244)"/><path d="M993.422-31.544l-2.447,2.636,2.652,2.778v.062h-1.283l-2.306-2.439v2.439H989v-5.508h1.039v2.329l2.093-2.329h1.29Z" transform="translate(-50.589 -47.244)"/><rect width="1.031" height="5.508" transform="translate(946.945 -78.819)"/><path d="M1012.3-30.632h-1.747v-.944h4.533v.944h-1.748v4.564H1012.3Z" transform="translate(-58.296 -47.244)"/><path d="M1028.6-26.822a2.9,2.9,0,0,1-2.093.818,2.707,2.707,0,0,1-2.919-2.841,2.772,2.772,0,0,1,2.919-2.9,2.844,2.844,0,0,1,2.022.842l-.692.669a1.894,1.894,0,0,0-1.33-.519,1.806,1.806,0,0,0-1.9,1.912,1.766,1.766,0,0,0,1.9,1.866,2.031,2.031,0,0,0,1.385-.559Z" transform="translate(-62.959 -47.183)"/><path d="M1041.308-26.055v-2.227H1038.6v2.227h-1.039v-5.508h1.039v2.321h2.707v-2.321h1.031v5.508Z" transform="translate(-67.955 -47.249)"/><path d="M1055.866-26.068h-4.123v-5.508h4.123v1.007h-3.092V-29.3h2.982v.968h-2.982v1.243h3.092Z" transform="translate(-73.026 -47.244)"/><path d="M1068.581-31.588h1.038v5.516h-.645v.007l-2.9-3.722v3.715h-1.038v-5.508h.842l2.7,3.414Z" transform="translate(-77.781 -47.24)"/><path d="M926.039-131.294a1.656,1.656,0,0,0,.309.337,1.394,1.394,0,0,0,.221.113l.089.031.132.008a.74.74,0,0,0,.439-.159c.049-.048.051-.055.119-.13a.93.93,0,0,0,.085-.156.6.6,0,0,0,.037-.279.4.4,0,0,0-.045-.152l-.024-.051-.03,0h.03a.579.579,0,0,0,.06-.211.539.539,0,0,0-.041-.288,1.387,1.387,0,0,0-.056-.129,1.862,1.862,0,0,0-.148-.168,1.049,1.049,0,0,0-.2-.12,1.061,1.061,0,0,0-.224-.062.875.875,0,0,0-.5.067.8.8,0,0,0-.228.162l-.034.035a.268.268,0,0,0-.061.073,1.014,1.014,0,0,0-.076.119.759.759,0,0,0-.074.278.953.953,0,0,0,.027.245,1.61,1.61,0,0,0,.193.441" transform="translate(-27.995 -11.072)"/><path d="M907.081-138.436a.962.962,0,0,0-.28.1l-.083.047-.114.076-.307.211-.61.429c-.207.139-.4.3-.62.423l-.678.36-.678.36c-.2.1-.453.195-.676.292s-.471.168-.708.253-.473.129-.712.2a5.738,5.738,0,0,1-1.487.151,3.106,3.106,0,0,1-.721-.105l-.353-.124-.309-.189-.253-.252-.175-.3-.1-.369c-.013-.1-.015-.243-.02-.363a4.609,4.609,0,0,1,.16-1.488l.229-.732a3.1,3.1,0,0,0,.2-.806c-.007-.048-.017-.1-.028-.145s-.024-.062-.036-.094a.955.955,0,0,0-.187-.234.68.68,0,0,0-.177-.112l-.042-.023c-.019-.007.033.011-.043-.017l-.008,0-.017,0-.035-.006-.138-.017a.611.611,0,0,0-.222.013.979.979,0,0,0-.129.025l-.128.06a.93.93,0,0,0-.334.391l-.005.01-.006.024-.274,1.014-.13.508-.032.127a1.115,1.115,0,0,0-.022.151l-.03.278-.008.08-.153.063c-.031.012-.091.039-.1.039l-.117.036-.468.142c-.146.042-.335.105-.447.131l-.483.082-.959.159c-.318.011-.632.053-.958.04a6.7,6.7,0,0,1-.962-.085l-.473-.087-.47-.139a3.706,3.706,0,0,1-.858-.419,2.512,2.512,0,0,1-.645-.677c-.189-.258-.369-.552-.591-.8a1.723,1.723,0,0,0-.833-.613,2.953,2.953,0,0,0-.517-.084,2.292,2.292,0,0,0-.516.008,2.322,2.322,0,0,0-.985.377c-.137.1-.279.206-.411.316l-.369.355q-.253.283-.479.587l.045-.261.026-.148.029-.147.12-.633-.012.076a.815.815,0,0,0,.027-.325,1.05,1.05,0,0,0-.058-.185l-.071-.118a2.1,2.1,0,0,0-.237-.224l-.2-.1a.8.8,0,0,0-.174-.045,1.151,1.151,0,0,0-.156,0,.931.931,0,0,0-.177.042l-.1.05a.965.965,0,0,0-.129.109,1.366,1.366,0,0,0-.1.1c-.045.083-.087.17-.124.254l0,.006-.005.03-.118.671-.11.687-.055.344c-.016.108-.043.238-.049.353l-.017.179-.134.114c-.222.175-.4.375-.648.54l-.723.5-.722.385a6.835,6.835,0,0,1-.8.337l-.2.08-.086.032-.1.027-.4.107c-.135.033-.263.077-.4.1l-.434.064-.414.061-.4.014a3.526,3.526,0,0,1-.845-.051,1.056,1.056,0,0,1-.183-.03l-.176-.062c-.058-.022-.12-.037-.177-.062l-.148-.1a1.659,1.659,0,0,1-.148-.1l-.107-.127a1.191,1.191,0,0,1-.113-.128l-.1-.2-.1-.2c0-.008-.034-.116-.049-.17a2.8,2.8,0,0,1-.105-.4,4.024,4.024,0,0,1-.094-.811c0-.155.012-.272,0-.459l-.013-.148a1.581,1.581,0,0,0-.062-.155.655.655,0,0,0-.229-.273.966.966,0,0,0-.216-.11,1.271,1.271,0,0,0-.311-.062.919.919,0,0,0-.317.064.781.781,0,0,0-.254.2c-.21.277-.323.506-.489.761-.073.116-.159.271-.22.355l-.265.349-.265.349a1.808,1.808,0,0,1-.123.154l-.153.157-.6.605a8.317,8.317,0,0,1-.71.474,1.473,1.473,0,0,1-.39.157.618.618,0,0,1-.359.018c-.265-.057-.348-.31-.376-.59v-.008l-.026-.327a1.375,1.375,0,0,1,.011-.339,3.076,3.076,0,0,1,.037-.33l.082-.338.166-.664.258-.644c.043-.1.085-.223.13-.315l.151-.313c.05-.109.1-.2.151-.322a.789.789,0,0,0,.056-.4.754.754,0,0,0-.2-.366,1.582,1.582,0,0,0-.159-.118c-.068-.024-.139-.047-.21-.066a.874.874,0,0,0-.18-.01.457.457,0,0,0-.109.006l-.107.029a.655.655,0,0,0-.315.291l-.168.3-.1.188-.074.167-.3.667-.074.167a1.719,1.719,0,0,0-.066.194l-.107.349-.073.238-.115.028-.507.126c-.175.028-.356.044-.534.067a3.571,3.571,0,0,1-.518.047l-.518-.006a8.052,8.052,0,0,1-1.049-.13c-.341-.09-.682-.154-1.023-.279-.346-.1-.668-.23-1-.367l-.745-.3c.353-.269.708-.533,1.052-.809.384-.378.79-.731,1.154-1.129.333-.423.718-.818,1.008-1.264l.436-.669.218-.334c.075-.129.127-.241.192-.362a15.548,15.548,0,0,0,.709-1.442,13.44,13.44,0,0,0,.576-1.5l.25-.767.181-.777a13.684,13.684,0,0,0,.286-1.58c.1-.527.094-1.066.143-1.6.024-.534,0-1.074-.008-1.609a16.734,16.734,0,0,0-.5-3.163,12.227,12.227,0,0,0-1.192-2.976,7.722,7.722,0,0,0-2.155-2.387,5.212,5.212,0,0,0-3.036-1.015,7.539,7.539,0,0,0-3.148.692,9.146,9.146,0,0,0-2.6,1.9c-.393.386-.709.811-1.057,1.221-.308.44-.655.851-.93,1.315-.294.453-.58.908-.825,1.379a15.038,15.038,0,0,0-.717,1.439l-.674,1.461c-.214.49-.375,1-.564,1.494s-.38.985-.535,1.512l-.441,1.539-.273.955.382-4.512c.183-2.235.39-4.468.552-6.7l.258-3.354.032-.419a2.994,2.994,0,0,0,.017-.47.72.72,0,0,0-.12-.31c-.032-.037-.023-.033-.087-.1-.041-.033-.085-.066-.129-.1s-.091-.059-.136-.085a.914.914,0,0,0-.1-.032l-.1-.029c.006,0-.09-.016-.059-.008h-.021l-.042,0-.085.009a1.677,1.677,0,0,0-.166.029l-.094.046-.1.046c.027-.016-.046.03-.046.03l-.016.012-.03.027-.058.055a.671.671,0,0,0-.152.3.545.545,0,0,0-.018.121l-.01.118-.062.838-.523,6.7-1.042,13.413-.979,13.418.029,0,1,1.517,0,.038.057,0,.36-4.1c.154-1.358.346-2.72.518-4.08l.132-1.02.181-1.007.362-2.025.36-2.027.183-1.007.229-1,.457-2,.538-1.986.269-.993c.091-.322.21-.646.314-.969l.643-1.939c.236-.64.524-1.266.784-1.9l.4-.948.455-.9a18.383,18.383,0,0,1,2.238-3.39,8.837,8.837,0,0,1,1.442-1.368,4.475,4.475,0,0,1,.822-.527,4.577,4.577,0,0,1,.43-.231l.483-.177a4.46,4.46,0,0,1,3.76.091c.276.145.533.367.8.545.24.218.475.449.7.682.189.265.4.5.574.782.157.294.358.613.478.885.124.31.263.613.375.926l.287.96.2.976c.062.328.084.678.128,1.016a16.389,16.389,0,0,1-.128,4.01,17.16,17.16,0,0,1-1.131,3.876,17.127,17.127,0,0,1-.937,1.791l-.261.443c-.076.125-.19.267-.284.4-.2.267-.386.545-.6.8a13.1,13.1,0,0,1-2.943,2.5l-.547-.188c-.234-.08-.459-.118-.69-.179a3.458,3.458,0,0,0-.362-.08l-.367-.053a5.713,5.713,0,0,0-.725-.077l-.707-.03-.752.052-.735.058-.69.155a7.079,7.079,0,0,0-.712.179l-.686.245a13.486,13.486,0,0,0-1.307.565,12.706,12.706,0,0,0-1.257.74c-.11.076-.171.109-.319.22l-.28.216c-.1.076-.182.133-.285.226a.89.89,0,0,0-.265.437.806.806,0,0,0-.011.282l.017.087,0,.022.012.05.007.015.026.058a.739.739,0,0,0,.369.4.863.863,0,0,0,.132.056l.087.019a1.114,1.114,0,0,0,.116.022l.089.007.357.03c.475.041.951.085,1.43.082l.716.013.72-.03c.484-.011.954-.06,1.421-.116a13.859,13.859,0,0,0,1.42-.226,13.912,13.912,0,0,0,1.393-.357c.462-.128.9-.326,1.351-.486.406-.173.8-.373,1.2-.561l1.913.742c.346.119.692.274,1.037.358a8.546,8.546,0,0,0,1.066.267,6.953,6.953,0,0,0,1.091.152l.538.036.134.008.151,0,.279-.01a6.885,6.885,0,0,0,1.03-.137l.019.315c.006.071,0,.1.017.2l.039.193a2.04,2.04,0,0,0,.105.384,2.015,2.015,0,0,0,.181.391,2.13,2.13,0,0,0,.243.323,1.918,1.918,0,0,0,.717.464,2.143,2.143,0,0,0,.8.1,2.775,2.775,0,0,0,.772-.155c.26-.1.484-.225.723-.34.214-.132.4-.283.6-.43a6.175,6.175,0,0,0,.546-.533,4.409,4.409,0,0,0,.493-.556l.3-.391.117.342a1.542,1.542,0,0,0,.132.282l.145.276a3.732,3.732,0,0,0,.376.506,1.192,1.192,0,0,0,.225.2l.234.193c.1.062.183.1.275.153a2.976,2.976,0,0,0,.276.137l.292.1a2.132,2.132,0,0,0,.293.087l.3.055a2.547,2.547,0,0,0,.3.046l.608.031c.293-.017.589-.019.881-.047.289-.049.583-.082.871-.144s.574-.143.855-.228l.833-.278.818-.354c.269-.124.52-.284.783-.424.11-.067.218-.143.33-.215a3.6,3.6,0,0,0-.011.434l.008.7a1.9,1.9,0,0,0,.055.231c.048.064.069.15.146.191a.47.47,0,0,0,.209.11.571.571,0,0,0,.234.039.513.513,0,0,0,.434-.194c.078-.13.147-.273.21-.407l.4-.819.2-.4.241-.386.482-.773a3.311,3.311,0,0,1,.248-.367l.268-.348a3.249,3.249,0,0,1,.3-.335c.1-.1.217-.24.308-.308a2.191,2.191,0,0,1,.326-.243.928.928,0,0,1,.312-.112,1.718,1.718,0,0,1,.274.033c.031.02.022-.006.076.029l.036.024,0,0,.043.051a1.612,1.612,0,0,1,.187.246l.09.132.094.145.189.29.1.144c.06.08.092.108.14.164a3.632,3.632,0,0,0,.536.5,5.66,5.66,0,0,0,.651.405,6.477,6.477,0,0,0,.659.283c.234.07.475.157.7.212l.678.136a6.606,6.606,0,0,0,.73.086,5,5,0,0,0,.713.032l.691-.021h.021l.058-.005.042-.006.086-.013.171-.025.342-.051.684-.1.171-.025.086-.013.042-.006.058-.012.021-.006.333-.1.612-.174c.04.135.076.271.124.4.089.166.166.337.268.493.12.145.232.3.358.43s.252.229.407.348l.469.274.506.178a2.964,2.964,0,0,0,.519.11,2.645,2.645,0,0,0,.523.063l.525.026.772-.035.765-.105a11.758,11.758,0,0,0,1.5-.365,7.018,7.018,0,0,0,.737-.25c.24-.1.489-.179.724-.288A14.085,14.085,0,0,0,906.4-136c.47-.25.863-.563,1.293-.848a.876.876,0,0,0-.616-1.59" transform="translate(0 0)"/><path d="M882.332-127.681l0,0,.008-.014Z" transform="translate(-12.446 -12.87)"/><path d="M903.948-73.164a3.893,3.893,0,0,1-1.183,2.856,3.893,3.893,0,0,1-2.856,1.183,3.9,3.9,0,0,1-2.856-1.183,3.893,3.893,0,0,1-1.183-2.856v-38.128h-5.193v36.974a8.933,8.933,0,0,0,.721,3.577,9.378,9.378,0,0,0,1.99,2.943,9.379,9.379,0,0,0,2.943,1.99,8.934,8.934,0,0,0,3.577.721,9.138,9.138,0,0,0,3.606-.721,8.937,8.937,0,0,0,2.942-1.99,9.6,9.6,0,0,0,1.962-2.943,8.924,8.924,0,0,0,.721-3.577v-36.974h-5.193Z" transform="translate(-15.43 -18.737)"/><path d="M932.973-72.972v-33.8a4.431,4.431,0,0,0-.591-2.266,4.524,4.524,0,0,0-1.544-1.609,4.675,4.675,0,0,0-2.1-.69,4.691,4.691,0,0,0-2.331.427,6.218,6.218,0,0,1,.657,2.824v33.8c-.178,7.744,4.329,9.267,6.393,9.267h12.62V-70.9h-12.62a4.484,4.484,0,0,1-.482-2.071" transform="translate(-28.206 -18.716)"/><path d="M1001.377-108.58a9.381,9.381,0,0,0-2.943-1.99,8.935,8.935,0,0,0-3.577-.721,9.139,9.139,0,0,0-3.606.721,8.934,8.934,0,0,0-2.942,1.99,9.6,9.6,0,0,0-1.962,2.942,8.936,8.936,0,0,0-.722,3.578v36.674h5.193V-83.877H998.9v18.491h5.193v-36.674a8.948,8.948,0,0,0-.721-3.578,9.393,9.393,0,0,0-1.99-2.942M998.9-89.345h-8.078v-13.869A3.894,3.894,0,0,1,992-106.071a3.894,3.894,0,0,1,2.856-1.183,3.9,3.9,0,0,1,2.857,1.183,3.9,3.9,0,0,1,1.183,2.856Z" transform="translate(-49.382 -18.737)"/><path d="M965.459-101.8h-.023v36.412h5.911v-18.3h.023v-27.606h-5.911Z" transform="translate(-42.163 -18.737)"/><path d="M1063.258-111.292v9.494h-.023v36.412h5.911v-18.3h.022v-27.606Z" transform="translate(-77.135 -18.737)"/><path d="M869.687-85.754a11.648,11.648,0,0,0-2.355.162q-1.125.135-2.154.31t-2.159.376a7.951,7.951,0,0,1-2.007.022,5.481,5.481,0,0,1-1.905-.63,4.284,4.284,0,0,0-.881,2.879,4.814,4.814,0,0,0,.945,2.584,4.935,4.935,0,0,0,2.212,1.634,4.2,4.2,0,0,0,2.994-.035l.287-.109v3.006h-.009c0,.055,0,.109-.006.163a4.543,4.543,0,0,1-.525,1.9,4.893,4.893,0,0,1-1.281,1.511,4.187,4.187,0,0,1-1.871.853,4.7,4.7,0,0,1-2.069-.066,4.29,4.29,0,0,1-1.773-.919,5.206,5.206,0,0,1-1.215-1.544,4.285,4.285,0,0,1-.46-2v-26.268a4.411,4.411,0,0,1,1.511-3.448,4.564,4.564,0,0,1,3.612-1.15,4.676,4.676,0,0,1,1.838.657,4.578,4.578,0,0,1,1.379,1.281,4.577,4.577,0,0,1,.723,1.708,4.82,4.82,0,0,1,0,1.937l-.394,1.97c-.021.1-.04.195-.055.292h6.287a10.446,10.446,0,0,0,.106-3.312,10.4,10.4,0,0,0-1.445-4.17,10.208,10.208,0,0,0-3.053-3.152,10.7,10.7,0,0,0-4.269-1.675,9.728,9.728,0,0,0-4.564.3,11.085,11.085,0,0,0-3.874,2.1,10.626,10.626,0,0,0-2.692,3.48,10.048,10.048,0,0,0-1.019,4.5v24.955a10.058,10.058,0,0,0,.952,4.368,11.058,11.058,0,0,0,2.529,3.447,10.359,10.359,0,0,0,3.677,2.168,10.146,10.146,0,0,0,4.466.459,10.359,10.359,0,0,0,4.269-1.412,10.49,10.49,0,0,0,3.152-2.89,10.679,10.679,0,0,0,1.74-3.908,9.519,9.519,0,0,0,.231-2.021h.006V-85.766h-.88Z" transform="translate(-0.721 -18.795)"/><path d="M1037.638-83.947l-8.232-24.518h-.011a3.759,3.759,0,0,0-.356-.83,3.973,3.973,0,0,0-1.354-1.413,4.111,4.111,0,0,0-1.846-.606,4.116,4.116,0,0,0-2.047.375,5.473,5.473,0,0,1,.577,2.48v1.516h0v41.872h5.193V-91.331l8.078,22.954v.058l1.124,3.249h4.069v-46.318h-5.193Z" transform="translate(-63.031 -18.703)"/></g></svg>